HIERARCHY
ROOT root
{
	OFFSET	0	13.1	24.9
	CHANNELS 6  Xposition Yposition Zposition Xrotation Yrotation Zrotation
	JOINT spine_1
	{
		OFFSET	0	9.99999	0
		CHANNELS 3  Xrotation Yrotation Zrotation
		JOINT spine_2
		{
			OFFSET	0	112	-10
			CHANNELS 3  Xrotation Yrotation Zrotation
			JOINT spine_3
			{
				OFFSET	0	206.5	19.3
				CHANNELS 3  Xrotation Yrotation Zrotation
				JOINT spine_4
				{
					OFFSET	0	110.4	14.6
					CHANNELS 3  Xrotation Yrotation Zrotation
					JOINT neck_1
					{
						OFFSET	0	71.8	-50.3
						CHANNELS 3  Xrotation Yrotation Zrotation
						JOINT neck_2
						{
							OFFSET	0	86.2	-25.8
							CHANNELS 3  Xrotation Yrotation Zrotation
							JOINT head_ee
							{
								OFFSET	0	179.8	-8.7
								CHANNELS 3  Xrotation Yrotation Zrotation
								End Site
								{
									OFFSET	1	0	0
								}
							}
						}
					}
					JOINT left_clavicle
					{
						OFFSET	-43.2	22.4	-70.8
						CHANNELS 3  Xrotation Yrotation Zrotation
						JOINT left_shoulder
						{
							OFFSET	-93.9	-5.79999	48.7
							CHANNELS 3  Xrotation Yrotation Zrotation
							JOINT left_elbow
							{
								OFFSET	-291.4	-30.8	15.2
								CHANNELS 3  Xrotation Yrotation Zrotation
								JOINT left_lowarm_twist
								{
									OFFSET	-110.7	-3.89999	13.6
									CHANNELS 3  Xrotation Yrotation Zrotation
									JOINT left_hand
									{
										OFFSET	-110.7	-3.89999	13.6
										CHANNELS 3  Xrotation Yrotation Zrotation
										JOINT left_ee
										{
											OFFSET	-80.8	-5.10001	12.1
											CHANNELS 3  Xrotation Yrotation Zrotation
											End Site
											{
												OFFSET	1	0	0
											}
										}
									}
								}
							}
						}
					}
					JOINT right_clavicle
					{
						OFFSET	43.2	22.4	-70.8
						CHANNELS 3  Xrotation Yrotation Zrotation
						JOINT right_shoulder
						{
							OFFSET	93.9	-5.79999	48.7
							CHANNELS 3  Xrotation Yrotation Zrotation
							JOINT right_elbow
							{
								OFFSET	291.4	-30.8	15.2
								CHANNELS 3  Xrotation Yrotation Zrotation
								JOINT right_lowarm_twist
								{
									OFFSET	110.7	-3.89999	13.6
									CHANNELS 3  Xrotation Yrotation Zrotation
									JOINT right_hand
									{
										OFFSET	110.7	-3.89999	13.6
										CHANNELS 3  Xrotation Yrotation Zrotation
										JOINT right_ee
										{
											OFFSET	80.8	-5.10001	12.1
											CHANNELS 3  Xrotation Yrotation Zrotation
											End Site
											{
												OFFSET	1	0	0
											}
										}
									}
								}
							}
						}
					}
				}
			}
		}
	}
	JOINT left_hip
	{
		OFFSET	-82.8	-127.5	0.300001
		CHANNELS 3  Xrotation Yrotation Zrotation
		JOINT left_knee
		{
			OFFSET	-28.2	-396.7	2.2
			CHANNELS 3  Xrotation Yrotation Zrotation
			JOINT left_ankle
			{
				OFFSET	-11.7	-411.3	35.4
				CHANNELS 3  Xrotation Yrotation Zrotation
				JOINT left_toes
				{
					OFFSET	0	-60	-88.6
					CHANNELS 3  Xrotation Yrotation Zrotation
					JOINT left_foot_ee
					{
						OFFSET	-22.5	-16.5	-42.2
						CHANNELS 3  Xrotation Yrotation Zrotation
						End Site
						{
							OFFSET	1	0	0
						}
					}
				}
			}
		}
	}
	JOINT right_hip
	{
		OFFSET	82.8	-127.5	0.300001
		CHANNELS 3  Xrotation Yrotation Zrotation
		JOINT right_knee
		{
			OFFSET	28.2	-396.7	2.2
			CHANNELS 3  Xrotation Yrotation Zrotation
			JOINT right_ankle
			{
				OFFSET	11.7	-411.3	35.4
				CHANNELS 3  Xrotation Yrotation Zrotation
				JOINT right_toes
				{
					OFFSET	0	-60	-88.6
					CHANNELS 3  Xrotation Yrotation Zrotation
					JOINT right_foot_ee
					{
						OFFSET	22.5	-16.5	-42.2
						CHANNELS 3  Xrotation Yrotation Zrotation
						End Site
						{
							OFFSET	1	0	0
						}
					}
				}
			}
		}
	}
}
MOTION
Frames: 9
Frame Time: 0.02
1636.67 729.231 -628.565 171.975 -67.3842 166.728 -0.453092 0.499456 2.81332 -0.448746 0.3195 2.83937 -0.429956 -0.305848 2.84087 -0.441188 0.146464 2.85352 -10.4018 14.5542 4.99277 -10.5616 24.1565 8.62743 -0.0 0.0 -0.0 -5.75573 23.7421 -5.1383 -13.9559 -11.8543 78.3265 0.692119 -18.9246 0.115354 -11.423 -0.539543 1.35475 0.815486 5.01485 7.4743 -0.0 0.0 -0.0 10.5456 24.1327 -20.2789 9.88827 36.0936 -65.1314 1.3821 34.3957 -0.427795 66.1701 2.35294 7.64667 1.62949 -20.0083 -18.0727 0.0 0.0 0.0 6.79339 18.3543 -2.4232 -32.4365 -0.0569445 4.91167 11.2504 -4.53194 -1.62967 -24.9155 0.0 0.0 -0.0 0.0 -0.0 16.3175 27.8537 -7.15265 -20.2133 -0.293042 -3.07199 13.8305 -23.7074 2.01723 -11.7069 0.0 0.0 0.0 0.0 0.0 
1643.42 733.015 -628.649 173.557 -70.3225 168.395 -0.10659 0.356482 2.79443 -0.102264 0.178015 2.81143 -0.0912209 -0.421554 2.78537 -0.102046 0.0234517 2.81696 -8.64898 14.2118 3.74305 -8.72752 24.0483 6.96765 -0.0 0.0 -0.0 -5.45639 22.6339 -5.02511 -14.8481 -13.1252 77.2486 0.746195 -20.2865 0.1335 -13.4073 -0.660372 1.57806 0.810292 6.94687 8.19907 -0.0 0.0 -0.0 10.9123 23.7524 -21.143 6.89714 34.4192 -63.2773 1.52006 36.977 -0.508291 67.9488 2.53035 7.79017 2.51884 -14.145 -22.1238 0.0 0.0 0.0 7.92223 20.795 -3.37152 -27.9097 0.118435 4.23929 10.8961 -5.99868 -1.58992 -29.1092 0.0 0.0 -0.0 0.0 -0.0 15.5677 26.8286 -5.94772 -17.7209 -0.315804 -2.69027 4.5587 -23.1281 0.682206 -12.7776 0.0 0.0 0.0 0.0 0.0 
1646.3 737.566 -630.547 174.247 -71.3937 169.001 -0.268908 0.413919 2.774 -0.264658 0.236634 2.7947 -0.250569 -0.368388 2.78041 -0.261349 0.0751704 2.80368 -7.99085 14.6574 5.7619 -7.97551 23.3495 8.90476 -0.0 0.0 -0.0 -4.55726 22.2255 -3.84975 -15.4175 -13.6577 75.4955 0.836558 -22.5092 0.166475 -11.4291 -0.539906 1.35545 0.808604 5.85959 7.76207 -0.0 0.0 -0.0 11.1162 23.357 -21.6418 7.20441 32.0374 -62.8964 1.53889 37.3164 -0.519661 67.7933 2.51467 7.77785 2.68366 -13.849 -23.1614 0.0 0.0 0.0 8.1648 18.7744 -2.66833 -21.8093 0.269755 3.31576 18.082 3.22973 -2.4964 -25.3305 0.0 0.0 -0.0 0.0 -0.0 14.9285 27.2836 -5.38938 -16.0968 -0.321694 -2.44116 3.06191 -24.4788 0.46299 -12.5033 0.0 0.0 0.0 0.0 0.0 
1651.26 738.805 -633.181 175.766 -72.4141 171.153 -0.226154 0.423215 2.42044 -0.222935 0.268385 2.44245 -0.209515 -0.259964 2.44336 -0.217824 0.129061 2.45375 -8.21229 14.4969 4.93901 -8.23468 23.6713 8.10957 -0.0 0.0 -0.0 -4.47695 21.6524 -3.8739 -15.1647 -14.2919 75.9627 0.835355 -22.4801 0.166015 -10.0264 -0.459189 1.19517 0.938325 6.40666 8.8335 -0.0 0.0 -0.0 10.9609 24.4871 -21.1811 6.4763 29.8752 -61.6745 1.60076 38.4105 -0.55764 68.5352 2.58981 7.83627 3.45729 -11.2844 -27.8554 0.0 0.0 0.0 8.6828 24.4523 -3.49073 -17.357 0.317738 2.63447 19.6188 5.2903 -2.68474 -27.6517 0.0 0.0 -0.0 0.0 -0.0 14.6161 26.7626 -5.66589 -14.5788 -0.320814 -2.20827 1.60979 -24.3509 0.244108 -12.1376 0.0 0.0 0.0 0.0 0.0 
1655.74 736.919 -631.659 177.164 -73.7835 172.278 -0.21957 0.431775 2.52183 -0.216072 0.270482 2.54418 -0.201933 -0.279343 2.54322 -0.210937 0.125682 2.55542 -8.03714 14.6262 6.33747 -8.00301 22.8946 9.46686 -0.0 0.0 -0.0 -3.55377 20.5138 -2.7896 -15.7951 -15.4434 74.1496 0.781712 -21.1682 0.146071 -11.3444 -0.534919 1.34583 0.921471 5.34519 8.3072 -0.0 0.0 -0.0 11.4795 27.0602 -22.0749 6.33681 26.6745 -60.8154 1.62501 38.8304 -0.572774 69.2898 2.66701 7.8947 3.63962 -9.45192 -28.614 0.0 0.0 0.0 8.65402 23.3315 -3.15468 -14.1885 0.31959 2.14839 20.3593 11.8815 -2.78483 -27.5639 0.0 0.0 -0.0 0.0 -0.0 14.4993 25.9598 -5.06865 -12.9232 -0.31282 -1.95438 2.10527 -26.1776 0.32198 -10.3985 0.0 0.0 0.0 0.0 0.0 
1659.98 738.728 -632.906 178.929 -74.911 174.323 -0.162851 0.322456 2.39694 -0.15967 0.169325 2.41259 -0.150772 -0.347978 2.39337 -0.158764 0.0342627 2.41828 -7.74828 14.7785 7.25215 -7.66417 22.4663 10.3399 -0.0 0.0 -0.0 -2.83029 19.7335 -1.87989 -15.3274 -16.2303 73.3972 0.805219 -21.746 0.15467 -11.054 -0.517932 1.31278 0.948502 6.79402 9.05105 -0.0 0.0 -0.0 11.5955 27.2632 -22.3138 5.1151 24.9217 -60.3484 1.73245 40.6327 -0.641456 69.2238 2.66023 7.88963 4.07337 -8.56098 -31.6044 0.0 0.0 0.0 8.33864 25.0045 -3.17592 -10.1843 0.283503 1.5352 19.0553 12.2874 -2.6232 -27.7436 0.0 0.0 -0.0 0.0 -0.0 14.7257 26.0518 -5.17966 -12.8342 -0.312182 -1.94074 -1.08676 -27.3451 -0.168515 -10.2407 0.0 0.0 0.0 0.0 0.0 
1664.79 740.274 -636.239 -179.216 -75.4566 176.62 -0.0901434 0.207314 2.19729 -0.0874598 0.0671089 2.20603 -0.0835409 -0.401385 2.17026 -0.0901099 -0.0536828 2.20639 -7.12104 14.9453 7.25112 -7.00713 22.6292 10.2657 -0.0 0.0 -0.0 -2.36403 19.0567 -1.30926 -14.8758 -16.9426 73.0667 0.801822 -21.6628 0.153414 -10.504 -0.486228 1.24996 1.22612 6.72439 10.8637 -0.0 0.0 -0.0 11.5424 27.4082 -22.176 4.12857 23.8435 -60.1036 1.7928 41.6045 -0.681149 70.051 2.74566 7.95261 4.37133 -5.6298 -32.9118 0.0 0.0 0.0 8.01157 26.4173 -2.92128 -6.89018 0.221756 1.03355 19.6014 13.9617 -2.70012 -28.2303 0.0 0.0 -0.0 0.0 -0.0 14.4726 25.8861 -5.10232 -11.2158 -0.296897 -1.6929 -1.72208 -27.4206 -0.267491 -11.9455 0.0 0.0 0.0 0.0 0.0 
1668.99 742.797 -640.422 -178.241 -75.7917 177.889 -0.153431 0.153704 2.07042 -0.151047 0.0216752 2.076 -0.149083 -0.420599 2.03308 -0.154839 -0.0943051 2.07397 -7.52326 15.1973 8.23867 -7.38755 22.4926 11.3537 -0.0 0.0 -0.0 -1.95225 19.028 -0.69674 -15.2232 -17.2622 72.3792 0.802212 -21.6724 0.153558 -10.3179 -0.475641 1.22865 1.16771 7.20403 10.6588 -0.0 0.0 -0.0 11.6062 27.1415 -22.3526 3.43679 22.0209 -59.8833 1.85456 42.5693 -0.722542 70.5468 2.7973 7.98977 4.62174 -4.2803 -34.4129 0.0 0.0 0.0 7.67892 27.9183 -2.46197 -4.7268 0.165553 0.706327 19.6692 16.3783 -2.72475 -28.1903 0.0 0.0 -0.0 0.0 -0.0 14.4597 25.7289 -5.25932 -10.7741 -0.29151 -1.62535 -1.60926 -27.55 -0.250105 -11.7567 0.0 0.0 0.0 0.0 0.0 
1676.8 742.767 -642.386 -178.708 -76.0432 177.705 -0.179048 0.116414 1.82152 -0.177202 0.000289509 1.82523 -0.176287 -0.388952 1.78332 -0.180711 -0.102477 1.82236 -7.25912 15.5069 8.45341 -7.10221 22.8504 11.5836 -0.0 0.0 -0.0 -1.65462 18.3897 -0.351861 -14.4643 -17.5976 72.2286 0.821615 -22.1464 0.160798 -10.0098 -0.458258 1.19327 1.2517 7.40823 11.2933 -0.0 0.0 -0.0 11.5605 26.8617 -22.282 2.26863 20.9476 -59.5861 1.87024 42.8097 -0.733177 70.4421 2.78637 7.98196 4.73435 -4.22797 -35.3099 0.0 0.0 0.0 7.01329 27.3575 -2.26029 -4.25612 0.151689 0.635422 18.7412 16.7513 -2.60929 -28.3189 0.0 0.0 -0.0 0.0 -0.0 14.5426 25.6263 -5.20046 -12.2855 -0.307784 -1.85667 -0.381557 -28.0615 -0.0593371 -11.3725 0.0 0.0 0.0 0.0 0.0 
